<svg width="28" height="23" viewBox="0 0 28 23" fill="none" xmlns="http://www.w3.org/2000/svg">
<path fill-rule="evenodd" clip-rule="evenodd" d="M8.22818 0.965439C9.72109 0.913117 10.1971 0.901489 14 0.901489C17.8029 0.901489 18.2789 0.914085 19.7705 0.965439C21.2622 1.01679 22.2804 1.19799 23.1713 1.46057C24.1042 1.72896 24.9505 2.14852 25.6505 2.69112C26.3633 3.22307 26.9131 3.86645 27.2644 4.57765C27.6105 5.25591 27.8473 6.03106 27.916 7.16472C27.9847 8.30323 28 8.66561 28 11.5598C28 14.455 27.9835 14.8174 27.916 15.954C27.8485 17.0876 27.6105 17.8628 27.2644 18.5411C26.9131 19.2523 26.3624 19.8968 25.6505 20.4295C24.9505 20.9721 24.1042 21.3907 23.1713 21.6581C22.2804 21.9217 21.2622 22.1019 19.7731 22.1542C18.2789 22.2066 17.8029 22.2182 14 22.2182C10.1971 22.2182 9.72109 22.2056 8.22818 22.1542C6.73909 22.1029 5.72091 21.9217 4.83 21.6581C3.89572 21.3907 3.04923 20.9714 2.34945 20.4295C1.63721 19.8973 1.08604 19.2531 0.734364 18.542C0.389455 17.8638 0.152727 17.0886 0.084 15.955C0.0152727 14.8164 0 14.4541 0 11.5598C0 8.66464 0.0165454 8.30226 0.084 7.16666C0.151455 6.03106 0.389455 5.25591 0.734364 4.57765C1.08656 3.86653 1.63815 3.22241 2.35073 2.69015C3.04951 2.14803 3.89515 1.72843 4.82873 1.46057C5.71964 1.19799 6.73782 1.01776 8.22691 0.965439H8.22818ZM19.6573 2.88394C18.1809 2.83259 17.738 2.82193 14 2.82193C10.262 2.82193 9.81909 2.83259 8.34273 2.88394C6.97709 2.93142 6.23636 3.10486 5.74255 3.25117C5.08964 3.44496 4.62255 3.6746 4.13255 4.04764C3.66806 4.39166 3.31059 4.81047 3.08636 5.27335C2.89418 5.6493 2.66636 6.21322 2.604 7.2529C2.53655 8.37687 2.52255 8.71406 2.52255 11.5598C2.52255 14.4056 2.53655 14.7428 2.604 15.8668C2.66636 16.9065 2.89418 17.4704 3.08636 17.8463C3.31036 18.3085 3.668 18.7281 4.13255 19.072C4.58436 19.4257 5.13545 19.698 5.74255 19.8685C6.23636 20.0148 6.97709 20.1883 8.34273 20.2357C9.81909 20.2871 10.2607 20.2977 14 20.2977C17.7393 20.2977 18.1809 20.2871 19.6573 20.2357C21.0229 20.1883 21.7636 20.0148 22.2575 19.8685C22.9104 19.6747 23.3775 19.4451 23.8675 19.072C24.332 18.7281 24.6896 18.3085 24.9136 17.8463C25.1058 17.4704 25.3336 16.9065 25.396 15.8668C25.4635 14.7428 25.4775 14.4056 25.4775 11.5598C25.4775 8.71406 25.4635 8.37687 25.396 7.2529C25.3336 6.21322 25.1058 5.6493 24.9136 5.27335C24.6591 4.77628 24.3575 4.42068 23.8675 4.04764C23.4155 3.69405 22.8654 3.42191 22.2575 3.25117C21.7636 3.10486 21.0229 2.93142 19.6573 2.88394ZM12.2118 14.8455C13.2105 15.162 14.3225 15.2047 15.3579 14.9664C16.3933 14.728 17.288 14.2234 17.889 13.5386C18.49 12.8539 18.7601 12.0316 18.6532 11.2121C18.5462 10.3926 18.0689 9.62677 17.3027 9.04544C16.8143 8.67382 16.2237 8.38928 15.5735 8.21229C14.9233 8.0353 14.2296 7.97026 13.5424 8.02186C12.8553 8.07346 12.1916 8.24042 11.5994 8.51071C11.0071 8.781 10.5009 9.1479 10.1173 9.58499C9.73364 10.0221 9.48206 10.5185 9.38066 11.0385C9.27926 11.5585 9.33056 12.0892 9.53087 12.5923C9.73118 13.0954 10.0755 13.5584 10.5391 13.948C11.0027 14.3376 11.574 14.6442 12.2118 14.8455ZM8.91164 7.68601C9.57985 7.17729 10.3731 6.77376 11.2462 6.49844C12.1193 6.22313 13.055 6.08142 14 6.08142C14.945 6.08142 15.8807 6.22312 16.7538 6.49844C17.6269 6.77376 18.4202 7.17729 19.0884 7.68601C19.7566 8.19473 20.2866 8.79867 20.6483 9.46334C21.0099 10.128 21.196 10.8404 21.196 11.5598C21.196 12.2793 21.0099 12.9917 20.6483 13.6563C20.2866 14.321 19.7566 14.9249 19.0884 15.4337C17.7388 16.4611 15.9085 17.0383 14 17.0383C12.0915 17.0383 10.2612 16.4611 8.91164 15.4337C7.56212 14.4063 6.80397 13.0128 6.80397 11.5598C6.80397 10.1069 7.56212 8.71341 8.91164 7.68601ZM22.792 6.89729C22.9576 6.77838 23.0902 6.63537 23.1818 6.47675C23.2735 6.31813 23.3225 6.14711 23.3258 5.97383C23.3291 5.80054 23.2867 5.62851 23.2012 5.46792C23.1156 5.30733 22.9886 5.16145 22.8276 5.0389C22.6666 4.91636 22.475 4.81965 22.2641 4.7545C22.0531 4.68935 21.8272 4.65708 21.5995 4.65961C21.3719 4.66213 21.1473 4.6994 20.9389 4.76921C20.7306 4.83901 20.5427 4.93993 20.3865 5.066C20.0828 5.31117 19.9164 5.63682 19.9229 5.97383C19.9293 6.31083 20.1081 6.63266 20.4211 6.87098C20.7342 7.10931 21.1569 7.24537 21.5995 7.25028C22.0422 7.25519 22.47 7.12857 22.792 6.89729Z" fill="black" fill-opacity="0.71"/>
</svg>
