<svg width="28" height="23" viewBox="0 0 28 23" fill="none" xmlns="http://www.w3.org/2000/svg">
<path d="M14.0042 0.901522C10.2917 0.904354 6.73224 2.0279 4.10684 4.02565C1.48143 6.02339 0.00447451 8.73219 7.95932e-06 11.5577C-0.00280412 13.5695 0.739585 15.53 2.14 17.2272L2.47183 17.6295L1.05735 21.5611L6.35813 20.5039L6.86711 20.735C9.02542 21.7072 11.4877 22.2196 13.9957 22.2182H13.9986C17.7099 22.2142 21.2677 21.0905 23.8923 19.0934C26.5168 17.0963 27.994 14.3887 27.9999 11.5641C28.0063 10.164 27.6478 8.77689 26.945 7.483C26.2421 6.18911 25.2091 5.01418 23.9055 4.02625C22.6087 3.03286 21.0658 9.25686 19.3662 8.72049C17.6666 8.18411 15.8441 0.898034 14.0042 0.901522ZM22.238 16.1357C21.8864 16.8847 20.2048 17.5653 19.3978 17.6574C18.513 17.7735 17.6048 17.7302 16.746 17.5311C15.9312 17.3391 15.1305 17.114 14.3473 16.8569C10.1235 15.47 7.36766 12.2362 7.15395 12.02C6.94585 11.806 5.43857 10.2821 5.43857 8.70693C5.43857 7.12958 6.52404 6.35482 6.9093 6.03379C7.05075 5.91214 7.22365 5.814 7.41719 5.74551C7.61073 5.67702 7.82075 5.63964 8.03413 5.6357C8.31534 5.6357 8.59373 5.63784 8.84119 5.64641C9.09991 5.65497 9.44579 5.5715 9.78606 6.19644C10.1376 6.83851 10.9812 8.41372 11.0852 8.57424C11.1893 8.73261 11.2596 8.92095 11.1218 9.13498C10.9812 9.35114 10.9137 9.48169 10.7 9.67003C10.4919 9.85837 10.2585 10.0874 10.0701 10.2329C9.85917 10.3913 9.63983 10.5646 9.88448 10.8857C10.1319 11.2046 10.9756 12.2554 12.2241 13.1051C13.8326 14.1966 15.1909 14.5326 15.6099 14.6953C16.0317 14.8537 16.2763 14.8301 16.5238 14.614C16.7685 14.3978 17.5755 13.6787 17.8567 13.3598C18.1379 13.0387 18.4163 13.0923 18.8044 13.1971C19.1897 13.3063 21.2594 14.0789 21.6784 14.2394C22.0945 14.3978 22.3786 14.4791 22.4854 14.614C22.5867 14.7466 22.5867 15.3866 22.238 16.1357Z" fill="black" fill-opacity="0.71"/>
</svg>
